#!OML:ASF H:\Pregnant\Project 1\Capture day 1\Session 1\femalepreg.ASF
:FULLY-SPECIFIED
:DEGREES
426
root 3.84164 15.4358 28.0615 16.7318 -23.6684 -0.959191
lowerback -14.0324 0.380231 8.57121
upperback -4.63645 -0.840116 2.62961
thorax 2.86283 -0.462736 -2.2004
lowerneck -18.067 -2.9956 1.72116
upperneck 17.6259 -4.10177 -2.42044
head 8.36725 -2.08541 -1.60134
rclavicle 7.55382e-014 2.54444e-014
rhumerus -33.92 -6.67 -74.8399
rradius 27.802
rwrist -3.29626
rhand -16.7033 -14.2999
rfingers 7.12502
rthumb 9.52166 -44.0647
lclavicle 7.55382e-014 2.54444e-014
lhumerus -41.7373 4.71609 77.1561
lradius 28.2835
lwrist 38.7802
lhand -22.4649 -4.00556
lfingers 7.12502
lthumb 3.95985 25.9374
rfemur -37.0423 19.1224 20.0148
rtibia 37.3275
rfoot -11.0549 -12.4221
rtoes -11.301
lfemur -36.9757 -5.51183 -20.6237
ltibia 62.1315
lfoot -3.64805 -0.860741
ltoes -25.8908
427
root 3.81628 15.4326 28.1239 16.6684 -24.0115 -0.905607
lowerback -14.053 0.327737 8.60709
upperback -4.59214 -0.922129 2.66953
thorax 2.91287 -0.500575 -2.19188
lowerneck -17.9877 -3.06221 1.67026
upperneck 17.5953 -4.19069 -2.36455
head 8.3433 -2.12525 -1.5827
rclavicle -5.51627e-015 -1.11319e-014
rhumerus -33.9053 -6.27766 -74.9631
rradius 27.9229
rwrist -3.31364
rhand -16.9988 -14.0919
rfingers 7.12502
rthumb 9.23655 -43.8696
lclavicle -5.51627e-015 -1.11319e-014
lhumerus -41.7952 4.61043 77.4614
lradius 27.8526
lwrist 37.9906
lhand -21.6552 -3.83019
lfingers 7.12502
lthumb 4.7417 26.0967
rfemur -36.8052 19.3221 20.0185
rtibia 37.4437
rfoot -11.2978 -12.3993
rtoes -11.413
lfemur -37.5241 -5.51165 -20.5279
ltibia 61.8349
lfoot -4.01303 -0.427138
ltoes -26.2178
428
root 3.79027 15.4298 28.1868 16.5947 -24.3536 -0.84607
lowerback -14.0686 0.26399 8.62376
upperback -4.55153 -1.01527 2.70381
thorax 2.95558 -0.544214 -2.18039
lowerneck -17.9182 -3.12842 1.61706
upperneck 17.5898 -4.27922 -2.30653
head 8.3298 -2.16472 -1.56362
rclavicle -3.43649e-014 -3.65764e-014
rhumerus -33.8886 -5.90775 -75.0945
rradius 28.0145
rwrist -3.37394
rhand -17.3534 -13.9951
rfingers 7.12502
rthumb 8.89436 -43.7876
lclavicle -3.43649e-014 -3.65764e-014
lhumerus -41.8643 4.50689 77.7397
lradius 27.4436
lwrist 37.265
lhand -20.734 -3.62241
lfingers 7.12502
lthumb 5.6312 26.2828
rfemur -36.5547 19.5322 20.0174
rtibia 37.5607
rfoot -11.54 -12.3891
rtoes -11.5446
lfemur -38.0237 -5.54915 -20.416
ltibia 61.4269
lfoot -4.39393 0.0399667
ltoes -26.5088
429
root 3.76439 15.4274 28.2496 16.5281 -24.6998 -0.78237
lowerback -14.087 0.197388 8.63438
upperback -4.51612 -1.11074 2.72499
thorax 2.99391 -0.589326 -2.17976
lowerneck -17.8667 -3.19618 1.56899
upperneck 17.6137 -4.37233 -2.24576
head 8.3293 -2.20555 -1.54598
rclavicle -3.96575e-014 1.59028e-015
rhumerus -33.8563 -5.58683 -75.2321
rradius 28.0666
rwrist -3.46101
rhand -17.7467 -13.9597
rfingers 7.12502
rthumb 8.51477 -43.768
lclavicle -3.96575e-014 1.59028e-015
lhumerus -41.9287 4.38755 77.9936
lradius 27.053
lwrist 36.6234
lhand -19.7491 -3.44998
lfingers 7.12502
lthumb 6.58207 26.4277
rfemur -36.3155 19.7335 20.0087
rtibia 37.6784
rfoot -11.7842 -12.3672
rtoes -11.6947
lfemur -38.4994 -5.62726 -20.2862
ltibia 60.9166
lfoot -4.77812 0.531254
ltoes -26.7773
430
root 3.73868 15.4255 28.3117 16.4739 -25.0476 -0.707981
lowerback -14.1049 0.124722 8.62685
upperback -4.4966 -1.2102 2.73631
thorax 3.01507 -0.637517 -2.17997
lowerneck -17.8166 -3.26545 1.51874
upperneck 17.6669 -4.46799 -2.1819
head 8.33915 -2.24727 -1.5279
rclavicle -2.13197e-014 -3.81667e-014
rhumerus -33.8233 -5.29685 -75.3717
rradius 28.0889
rwrist -3.5746
rhand -18.1505 -13.9705
rfingers 7.12502
rthumb 8.12509 -43.7943
lclavicle -2.13197e-014 -3.81667e-014
lhumerus -42.0041 4.25217 78.2267
lradius 26.691
lwrist 36.0764
lhand -18.7251 -3.24745
lfingers 7.12502
lthumb 7.57051 26.5971
rfemur -36.0995 19.9247 19.9841
rtibia 37.7965
rfoot -12.0292 -12.333
rtoes -11.8486
lfemur -38.966 -5.74869 -20.1374
ltibia 60.3108
lfoot -5.14149 1.02475
ltoes -26.994
431
root 3.71397 15.4233 28.3741 16.4191 -25.4138 -0.629
lowerback -14.1151 0.0578342 8.62184
upperback -4.481 -1.30044 2.7303
thorax 3.02828 -0.681599 -2.19825
lowerneck -17.78 -3.33746 1.47248
upperneck 17.7469 -4.5704 -2.11166
head 8.36047 -2.29103 -1.51
rclavicle 8.09054e-014 2.38542e-014
rhumerus -33.7878 -5.05164 -75.514
rradius 28.0891
rwrist -3.69562
rhand -18.5251 -14.0199
rfingers 7.12502
rthumb 7.76352 -43.8574
lclavicle 8.09054e-014 2.38542e-014
lhumerus -42.0798 4.07362 78.4505
lradius 26.3724
lwrist 35.6683
lhand -17.7011 -3.01232
lfingers 7.12502
lthumb 8.55881 26.7942
rfemur -35.8919 20.1149 19.9459
rtibia 37.9141
rfoot -12.2766 -12.2805
rtoes -11.9945
lfemur -39.4164 -5.88121 -19.9728
ltibia 59.6257
lfoot -5.46895 1.48866
ltoes -27.0921
432
root 3.69056 15.4208 28.4367 16.3729 -25.8014 -0.548609
lowerback -14.1183 -0.00519462 8.62122
upperback -4.47735 -1.3843 2.71542
thorax 3.02526 -0.723555 -2.22707
lowerneck -17.7603 -3.40884 1.42513
upperneck 17.8648 -4.67101 -2.04823
head 8.39763 -2.33448 -1.4952
rclavicle 6.95995e-014 -1.59028e-014
rhumerus -33.7551 -4.83493 -75.6475
rradius 28.0685
rwrist -3.81015
rhand -18.8434 -14.0826
rfingers 7.12502
rthumb 7.45631 -43.9312
lclavicle 6.95995e-014 -1.59028e-014
lhumerus -42.1708 3.86225 78.6745
lradius 26.1051
lwrist 35.3981
lhand -16.6917 -2.73634
lfingers 7.12502
lthumb 9.53278 27.028
rfemur -35.7019 20.2907 19.8963
rtibia 38.0293
rfoot -12.5113 -12.1937
rtoes -12.1944
lfemur -39.8611 -6.03943 -19.787
ltibia 58.8711
lfoot -5.73634 1.93362
ltoes -27.1483
433
root 3.66855 15.4186 28.4998 16.3396 -26.2175 -0.473646
lowerback -14.1162 -0.0612648 8.62869
upperback -4.48501 -1.45874 2.69671
thorax 3.00787 -0.761819 -2.26268
lowerneck -17.7527 -3.47783 1.36809
upperneck 18.0133 -4.76657 -1.98445
head 8.44782 -2.37593 -1.47907
rclavicle -4.72859e-014 3.65764e-014
rhumerus -33.7258 -4.64798 -75.7618
rradius 28.0263
rwrist -3.8986
rhand -19.0854 -14.1341
rfingers 7.12502
rthumb 7.22276 -43.9909
lclavicle -4.72859e-014 3.65764e-014
lhumerus -42.281 3.62053 78.9083
lradius 25.9012
lwrist 35.272
lhand -15.7331 -2.39013
lfingers 7.12502
lthumb 10.4576 27.3298
rfemur -35.5269 20.4614 19.8372
rtibia 38.133
rfoot -12.7338 -12.0731
rtoes -12.4269
lfemur -40.3014 -6.23838 -19.5687
ltibia 58.0542
lfoot -5.93071 2.37341
ltoes -27.1726
434
root 3.64808 15.4166 28.5635 16.3232 -26.6648 -0.408562
lowerback -14.1092 -0.109712 8.6506
upperback -4.50663 -1.52378 2.67672
thorax 2.97328 -0.796639 -2.30588
lowerneck -17.7492 -3.54207 1.29868
upperneck 18.1886 -4.85296 -1.92073
head 8.50852 -2.41372 -1.46058
rclavicle -9.88954e-015 -2.06736e-014
rhumerus -33.7071 -4.47762 -75.8576
rradius 27.9721
rwrist -3.95556
rhand -19.2441 -14.1739
rfingers 7.12502
rthumb 7.06956 -44.0359
lclavicle -9.88954e-015 -2.06736e-014
lhumerus -42.4154 3.36997 79.1458
lradius 25.7617
lwrist 35.2671
lhand -14.8346 -1.95854
lfingers 7.12502
lthumb 11.3243 27.7157
rfemur -35.3651 20.6258 19.771
rtibia 38.2178
rfoot -12.9441 -11.9141
rtoes -12.688
lfemur -40.7398 -6.47033 -19.3143
ltibia 57.1824
lfoot -6.04934 2.81001
ltoes -27.1547
435
root 3.62795 15.4154 28.6279 16.307 -27.132 -0.349057
lowerback -14.0994 -0.153929 8.67282
upperback -4.52817 -1.5829 2.6536
thorax 2.93772 -0.828616 -2.3515
lowerneck -17.7656 -3.60386 1.22846
upperneck 18.3876 -4.93533 -1.86276
head 8.58102 -2.45005 -1.44445
rclavicle 2.99419e-014 0
rhumerus -33.6851 -4.34177 -75.9365
rradius 27.9022
rwrist -3.97963
rhand -19.3316 -14.217
rfingers 7.12502
rthumb 6.9851 -44.0818
lclavicle 2.99419e-014 0
lhumerus -42.552 3.1109 79.3815
lradius 25.6759
lwrist 35.3414
lhand -14.0155 -1.45445
lfingers 7.12502
lthumb 12.1142 28.1748
rfemur -35.1872 20.8007 19.7033
rtibia 38.273
rfoot -13.1396 -11.7451
rtoes -12.9716
lfemur -41.1511 -6.76141 -19.0149
ltibia 56.2543
lfoot -6.09868 3.25621
ltoes -27.0848
436
root 3.60783 15.4153 28.6928 16.2925 -27.6165 -0.293255
lowerback -14.0899 -0.197404 8.69017
upperback -4.55 -1.64032 2.62841
thorax 2.90217 -0.859805 -2.39625
lowerneck -17.7976 -3.65899 1.15927
upperneck 18.601 -5.00909 -1.80648
head 8.66157 -2.48226 -1.42877
rclavicle 5.72251e-014 -2.38542e-014
rhumerus -33.6659 -4.21559 -76.0083
rradius 27.8288
rwrist -3.98916
rhand -19.3626 -14.281
rfingers 7.12502
rthumb 6.95515 -44.1468
lclavicle 5.72251e-014 -2.38542e-014
lhumerus -42.6914 2.86913 79.6008
lradius 25.639
lwrist 35.4396
lhand -13.2779 -0.903271
lfingers 7.12502
lthumb 12.8253 28.6827
rfemur -34.9931 20.9926 19.6316
rtibia 38.2964
rfoot -13.3286 -11.5737
rtoes -13.2344
lfemur -41.5338 -7.11175 -18.6708
ltibia 55.275
lfoot -6.08976 3.7208
ltoes -26.9776
437
root 3.58773 15.4163 28.7584 16.2764 -28.1154 -0.243717
lowerback -14.0896 -0.232365 8.71383
upperback -4.56128 -1.68859 2.59182
thorax 2.88301 -0.885556 -2.45535
lowerneck -17.8481 -3.71279 1.10109
upperneck 18.8171 -5.08501 -1.74774
head 8.7464 -2.51428 -1.41489
rclavicle 1.28465e-014 -1.59028e-014
rhumerus -33.6427 -4.11344 -76.0843
rradius 27.7575
rwrist -3.99335
rhand -19.3305 -14.3379
rfingers 7.12502
rthumb 6.98614 -44.2026
lclavicle 1.28465e-014 -1.59028e-014
lhumerus -42.815 2.62011 79.8083
lradius 25.6389
lwrist 35.5433
lhand -12.6727 -0.386832
lfingers 7.12502
lthumb 13.4087 29.1616
rfemur -34.7764 21.2037 19.5597
rtibia 38.2872
rfoot -13.5181 -11.4034
rtoes -13.4433
lfemur -41.8814 -7.52926 -18.2801
ltibia 54.2523
lfoot -6.03658 4.21555
ltoes -26.8538
